<svg width="90" height="21" viewBox="0 0 90 21" fill="none" xmlns="http://www.w3.org/2000/svg">
<path d="M27.9727 3.62324C27.6435 2.39323 26.6768 1.42662 25.4468 1.09737C23.2197 0.5 14.285 0.5 14.285 0.5C14.285 0.5 5.35042 0.5 3.12323 1.09737C1.89323 1.42662 0.926623 2.39323 0.597366 3.62324C1.78814e-07 5.85042 0 10.5 0 10.5C0 10.5 1.78814e-07 15.1496 0.597366 17.3768C0.926623 18.6068 1.89323 19.5734 3.12323 19.9026C5.35042 20.5 14.285 20.5 14.285 20.5C14.285 20.5 23.2197 20.5 25.4468 19.9026C26.6768 19.5734 27.6435 18.6068 27.9727 17.3768C28.5701 15.1496 28.5701 10.5 28.5701 10.5C28.5701 10.5 28.5677 5.85042 27.9727 3.62324Z" fill="#FF0000"/>
<path d="M11.4253 14.7854L18.8477 10.5004L11.4253 6.21533V14.7854Z" fill="white"/>
<path d="M34.6024 13.5036L31.3945 1.91846H34.1932L35.3174 7.1701C35.6043 8.46361 35.8136 9.56662 35.95 10.4791H36.0323C36.1264 9.82532 36.3381 8.72937 36.665 7.18892L37.8291 1.91846H40.6278L37.3799 13.5036V19.061H34.6001V13.5036H34.6024Z" fill="black"/>
<path d="M41.4697 18.6937C40.9053 18.3127 40.5031 17.72 40.2632 16.9157C40.0257 16.1114 39.9058 15.0437 39.9058 13.7078V11.8898C39.9058 10.5422 40.0422 9.45805 40.315 8.64196C40.5878 7.82588 41.0135 7.22851 41.592 6.85457C42.1706 6.48063 42.9302 6.29248 43.871 6.29248C44.7976 6.29248 45.5384 6.48298 46.0981 6.86398C46.6555 7.24497 47.0647 7.84234 47.3234 8.65137C47.5821 9.46275 47.7115 10.5422 47.7115 11.8898V13.7078C47.7115 15.0437 47.5845 16.1161 47.3329 16.9251C47.0812 17.7365 46.672 18.3292 46.1075 18.7031C45.5431 19.0771 44.7764 19.2652 43.8098 19.2652C42.8126 19.2675 42.0342 19.0747 41.4697 18.6937ZM44.6353 16.7323C44.7905 16.3231 44.8705 15.6575 44.8705 14.7309V10.8292C44.8705 9.93077 44.7929 9.27225 44.6353 8.85833C44.4777 8.44206 44.2026 8.2351 43.8074 8.2351C43.4265 8.2351 43.156 8.44206 43.0008 8.85833C42.8432 9.27461 42.7656 9.93077 42.7656 10.8292V14.7309C42.7656 15.6575 42.8408 16.3254 42.9914 16.7323C43.1419 17.1415 43.4123 17.3461 43.8074 17.3461C44.2026 17.3461 44.4777 17.1415 44.6353 16.7323Z" fill="black"/>
<path d="M56.8154 19.0634H54.6094L54.3648 17.53H54.3037C53.7039 18.6871 52.8055 19.2656 51.6061 19.2656C50.7759 19.2656 50.1621 18.9928 49.767 18.4496C49.3719 17.9039 49.1743 17.0526 49.1743 15.8955V6.53751H51.9942V15.7308C51.9942 16.2906 52.0553 16.688 52.1776 16.9256C52.2999 17.1631 52.5045 17.283 52.7914 17.283C53.036 17.283 53.2712 17.2078 53.497 17.0573C53.7228 16.9067 53.8874 16.7162 53.9979 16.4858V6.53516H56.8154V19.0634Z" fill="black"/>
<path d="M64.4755 4.18758H61.6768V19.0629H58.9181V4.18758H56.1194V1.92041H64.4755V4.18758Z" fill="black"/>
<path d="M71.2768 19.0634H69.0708L68.8262 17.53H68.7651C68.1654 18.6871 67.267 19.2656 66.0675 19.2656C65.2373 19.2656 64.6235 18.9928 64.2284 18.4496C63.8333 17.9039 63.6357 17.0526 63.6357 15.8955V6.53751H66.4556V15.7308C66.4556 16.2906 66.5167 16.688 66.639 16.9256C66.7613 17.1631 66.9659 17.283 67.2529 17.283C67.4974 17.283 67.7326 17.2078 67.9584 17.0573C68.1842 16.9067 68.3488 16.7162 68.4593 16.4858V6.53516H71.2768V19.0634Z" fill="black"/>
<path d="M80.609 8.5387C80.4373 7.74849 80.1621 7.17699 79.7812 6.82186C79.4002 6.46674 78.8757 6.29035 78.2078 6.29035C77.6904 6.29035 77.2059 6.43616 76.7567 6.73014C76.3075 7.02412 75.9594 7.40747 75.7148 7.88489H75.6937V1.28564H72.9773V19.0608H75.3056L75.5925 17.8755H75.6537C75.8724 18.2988 76.1993 18.6304 76.6344 18.8774C77.0695 19.122 77.554 19.2443 78.0855 19.2443C79.038 19.2443 79.7412 18.8045 80.1904 17.9272C80.6396 17.0476 80.8653 15.6765 80.8653 13.8092V11.8266C80.8653 10.4272 80.7783 9.32892 80.609 8.5387ZM78.0243 13.6492C78.0243 14.5617 77.9867 15.2767 77.9114 15.7941C77.8362 16.3115 77.7115 16.6808 77.5328 16.8971C77.3564 17.1158 77.1165 17.224 76.8178 17.224C76.585 17.224 76.371 17.1699 76.1734 17.0594C75.9759 16.9512 75.816 16.7866 75.6937 16.5702V9.46062C75.7877 9.1196 75.9524 8.84209 76.1852 8.62337C76.4157 8.40465 76.6697 8.29646 76.9401 8.29646C77.2271 8.29646 77.4481 8.40935 77.6034 8.63278C77.7609 8.85855 77.8691 9.23485 77.9303 9.76636C77.9914 10.2979 78.022 11.0528 78.022 12.0335V13.6492H78.0243Z" fill="black"/>
<path d="M84.8657 14.3712C84.8657 15.1755 84.8892 15.7776 84.9363 16.1798C84.9833 16.5819 85.0821 16.8736 85.2326 17.0594C85.3831 17.2428 85.6136 17.3345 85.9264 17.3345C86.3474 17.3345 86.639 17.1699 86.7942 16.843C86.9518 16.5161 87.0365 15.9705 87.0506 15.2085L89.4824 15.3519C89.4965 15.4601 89.5035 15.6106 89.5035 15.8011C89.5035 16.9582 89.186 17.8237 88.5534 18.3952C87.9208 18.9667 87.0247 19.2536 85.8676 19.2536C84.4777 19.2536 83.504 18.8185 82.9466 17.946C82.3869 17.0735 82.1094 15.7259 82.1094 13.9008V11.7136C82.1094 9.83452 82.3987 8.46105 82.9772 7.59558C83.5558 6.7301 84.5459 6.29736 85.9499 6.29736C86.9165 6.29736 87.6597 6.47375 88.1771 6.82888C88.6945 7.184 89.059 7.73433 89.2707 8.48457C89.4824 9.2348 89.5882 10.2696 89.5882 11.5913V13.7362H84.8657V14.3712ZM85.2232 8.46811C85.0797 8.64449 84.9857 8.93377 84.9363 9.33593C84.8892 9.7381 84.8657 10.3472 84.8657 11.1657V12.0641H86.9283V11.1657C86.9283 10.3613 86.9001 9.75221 86.846 9.33593C86.7919 8.91966 86.6931 8.62803 86.5496 8.45635C86.4062 8.28702 86.1851 8.2 85.8864 8.2C85.5854 8.20235 85.3643 8.29172 85.2232 8.46811Z" fill="black"/>
</svg>
